<?xml version="1.0" encoding="utf-8"?>
<!-- Generator: Adobe Illustrator 18.1.1, SVG Export Plug-In . SVG Version: 6.00 Build 0)  -->
<!DOCTYPE svg PUBLIC "-//W3C//DTD SVG 1.1//EN" "http://www.w3.org/Graphics/SVG/1.1/DTD/svg11.dtd">
<svg version="1.1" id="Layer_1" xmlns="http://www.w3.org/2000/svg" xmlns:xlink="http://www.w3.org/1999/xlink" x="0px" y="0px"
	 width="38px" height="38px" viewBox="-1301 1372.8 38 38" enable-background="new -1301 1372.8 38 38" xml:space="preserve">
<g>
	<ellipse fill="#FFFC00" cx="-1282" cy="1391.8" rx="19" ry="19"/>
</g>
<g>
	<g>
		<path fill="#FFFFFF" d="M-1281.7,1403.2c-0.1,0-0.2,0-0.2,0h-0.1c-1.5,0-2.6-0.8-3.6-1.4c-0.7-0.5-1.3-1-2-1.1
			c-0.4-0.1-0.8-0.1-1.1-0.1c-0.7,0-1.2,0.1-1.4,0.2c-0.2,0-0.4,0.1-0.6,0.1s-0.4,0-0.4-0.3c-0.1-0.2-0.1-0.4-0.2-0.6
			c-0.1-0.5-0.2-0.8-0.4-0.9c-2-0.3-3.2-0.8-3.4-1.3c0-0.1,0-0.1,0-0.2c0-0.2,0.1-0.3,0.3-0.3c1.5-0.3,3-1.1,4.1-2.5
			c1-1.1,1.3-2.1,1.4-2.2l0,0c0.2-0.5,0.3-0.9,0.1-1.2c-0.3-0.6-1.1-0.9-1.6-1.1c-0.1,0-0.3-0.1-0.4-0.1c-0.5-0.2-1.3-0.6-1.2-1.2
			c0.1-0.4,0.7-0.7,1.1-0.7c0.1,0,0.2,0,0.3,0.1c0.5,0.2,1,0.4,1.3,0.4c0.5,0,0.7-0.2,0.8-0.2c0-0.3,0-0.6,0-0.8l0,0
			c-0.1-1.8-0.3-4,0.3-5.4c1.7-3.8,5.4-4.1,6.4-4.1h0.5c0,0,0,0,0.1,0c1.1,0,4.7,0.3,6.4,4.1c0.6,1.2,0.5,3.6,0.3,5.4v0.1
			c0,0.3,0,0.5,0,0.7c0.1,0.1,0.3,0.2,0.7,0.2c0.4,0,0.8-0.1,1.2-0.4c0.2-0.1,0.3-0.1,0.4-0.1c0.2,0,0.3,0,0.5,0.1l0,0
			c0.4,0.1,0.7,0.4,0.7,0.8c0,0.3-0.2,0.7-1.2,1.1c-0.1,0-0.2,0.1-0.4,0.1c-0.6,0.2-1.4,0.5-1.6,1.1c-0.1,0.3-0.1,0.8,0.1,1.2l0,0
			c0.1,0.2,1.7,4,5.6,4.7c0.2,0,0.3,0.2,0.3,0.3s0,0.1,0,0.2c-0.2,0.6-1.4,1-3.4,1.3c-0.2,0-0.3,0.3-0.4,0.9c0,0.2-0.1,0.4-0.2,0.6
			s-0.2,0.3-0.4,0.3l0,0c-0.1,0-0.3,0-0.6-0.1c-0.4-0.1-0.9-0.2-1.4-0.2c-0.4,0-0.7,0-1.1,0.1c-0.8,0.1-1.3,0.6-2,1.1
			C-1279,1402.4-1280.1,1403.2-1281.7,1403.2"/>
		<path d="M-1281.7,1403.4h-0.3c-1.4,0-2.4-0.6-3.4-1.2l-0.6-0.4c-0.6-0.4-1.1-0.8-1.6-0.9c-0.4-0.1-0.8-0.1-1.1-0.1
			c-0.7,0-1.2,0.1-1.3,0.2l-0.1,0c-0.1,0-0.2,0-0.2,0c-0.1,0-0.2,0.1-0.4,0.1c-0.2,0-0.6,0-0.6-0.5c0-0.1-0.1-0.2-0.1-0.3
			c0-0.1,0-0.2-0.1-0.2l0-0.1c0-0.2-0.1-0.6-0.2-0.7c-1.2-0.2-3.2-0.6-3.5-1.4l0-0.1v-0.2c0-0.3,0.2-0.5,0.6-0.5
			c1.5-0.3,2.9-1.2,3.9-2.4c0.7-0.8,1.1-1.6,1.3-1.9c0.1-0.1,0.1-0.2,0.1-0.2c0.2-0.5,0.2-0.8,0.1-0.9c-0.3-0.5-1-0.8-1.4-1l0,0
			c-0.1,0-0.1,0-0.2-0.1c0,0-0.1,0-0.1,0l-0.1,0c-1-0.4-1.5-0.9-1.4-1.5c0.1-0.6,0.9-0.9,1.3-0.9c0.1,0,0.3,0,0.4,0.1
			c0.4,0.2,0.9,0.4,1.2,0.4c0.3,0,0.4-0.1,0.5-0.1l0-1.1c-0.1-1.7-0.2-3.7,0.3-5c1.8-4,5.8-4.3,6.6-4.3h0.6c1.1,0,4.9,0.3,6.6,4.2
			c0.6,1.3,0.5,3.7,0.3,5.5l0,0.6c0.1,0,0.2,0.1,0.5,0.1c0.4,0,0.7-0.1,1.1-0.3c0.3-0.1,0.4-0.2,0.5-0.2c0.2,0,0.4,0,0.6,0.1
			c0.5,0.1,0.8,0.5,0.8,1c0,0.5-0.4,1-1.4,1.3l-0.1,0c-0.1,0-0.2,0.1-0.4,0.1c-0.4,0.1-1.2,0.4-1.4,0.9c-0.1,0.2-0.1,0.7,0.1,1
			c0.4,1,2.1,4,5.4,4.6c0,0,0,0,0,0c0.3,0,0.5,0.3,0.5,0.5l0,0.3c-0.2,0.7-1.3,1.1-3.6,1.5c0,0-0.1,0.2-0.2,0.7
			c0,0.2-0.1,0.5-0.2,0.7c-0.1,0.2-0.3,0.4-0.6,0.4c-0.1,0-0.3,0-0.7-0.1c-0.5-0.1-0.9-0.2-1.3-0.2c-0.4,0-0.7,0-1,0.1
			c-0.6,0.1-1,0.4-1.5,0.8c-0.1,0.1-0.3,0.2-0.4,0.3c-0.2,0.1-0.3,0.2-0.4,0.2C-1279.2,1402.8-1280.3,1403.4-1281.7,1403.4z
			 M-1288.7,1400.3c0.3,0,0.7,0,1.2,0.1c0.6,0.1,1.2,0.5,1.8,0.9l0.3,0.2l0.3,0.2c0.9,0.5,1.9,1.1,3.1,1.1h0.3c1.3,0,2.2-0.6,3.1-1
			c0.1-0.1,0.3-0.2,0.4-0.2c0.1-0.1,0.2-0.2,0.4-0.3c0.5-0.4,1-0.8,1.7-0.9c0.4-0.1,0.7-0.1,1.1-0.1c0.4,0,0.9,0.1,1.5,0.2
			c0.3,0.1,0.4,0.1,0.5,0.1c0.1,0,0.1,0,0.2-0.2c0.1-0.2,0.2-0.3,0.2-0.5c0.1-0.5,0.2-1.1,0.7-1.1c2.3-0.4,3-0.8,3.1-1.1v-0.2l0,0
			c0,0,0,0-0.1,0c-3.6-0.6-5.4-3.8-5.8-4.8c-0.3-0.5-0.2-1.1-0.1-1.4c0.2-0.7,1-1,1.8-1.3l0.1,0c0.1,0,0.1,0,0.2,0
			c0,0,0.1,0,0.2-0.1c0.5-0.2,1-0.5,1-0.9c0-0.3-0.3-0.5-0.5-0.6c-0.2-0.1-0.3-0.1-0.4-0.1c-0.1,0-0.1,0-0.3,0.1
			c-0.4,0.3-0.8,0.4-1.3,0.4c-0.4,0-0.7-0.1-0.9-0.3l-0.1-0.1v-0.9c0.3-2.5,0.2-4.4-0.3-5.3c-1.6-3.7-5.1-4-6.2-4h-0.6
			c-0.7,0-4.5,0.2-6.2,4c-0.5,1.2-0.4,3.1-0.3,4.8l0,0.5l0,1.1h-0.3c0,0,0,0,0,0c-0.1,0.1-0.4,0.2-0.8,0.2c-0.3,0-0.8-0.2-1.4-0.4
			l-0.1-0.1c0,0,0,0-0.1,0c-0.3,0-0.8,0.3-0.9,0.5c-0.1,0.4,0.6,0.7,1,0.9c0.1,0,0.1,0,0.2,0.1c0,0,0.1,0,0.1,0l0.1,0
			c0.5,0.2,1.3,0.5,1.7,1.2c0.3,0.4,0.1,0.9-0.1,1.4l-0.1,0.1c0,0,0,0.1-0.1,0.2c-0.2,0.4-0.5,1.2-1.3,2c-1,1.3-2.5,2.2-4.2,2.6
			l-0.1,0l0,0.2c0.2,0.3,1,0.8,3.2,1.1l0.1,0c0.3,0.1,0.4,0.5,0.5,1c0.1,0.1,0.1,0.2,0.1,0.3c0,0.1,0,0.2,0.1,0.2l0,0.1
			c0,0.1,0.1,0.1,0.1,0.1c0.1,0,0.2,0,0.2,0c0.1,0,0.2,0,0.3-0.1C-1289.9,1400.4-1289.3,1400.3-1288.7,1400.3z"/>
	</g>
	<path fill="#020202" d="M-1281.8,1378.5c1.1,0,4.5,0.3,6.2,4c0.6,1.2,0.4,3.5,0.3,5.3c0,0.3,0,0.6-0.1,0.9v0.1l0.1,0.1
		c0,0,0.3,0.3,1,0.4l0,0l0,0c0.4,0,0.9-0.2,1.4-0.4c0.1,0,0.2-0.1,0.3-0.1s0.3,0,0.4,0.1l0,0c0.3,0.1,0.5,0.3,0.5,0.4
		c0,0.1-0.1,0.4-1.1,0.8c-0.1,0-0.2,0.1-0.4,0.1c-0.6,0.2-1.5,0.5-1.8,1.2c-0.2,0.4-0.1,0.9,0.2,1.4c0.1,0.3,1.9,4.2,5.9,4.9
		c0,0,0,0,0,0.1c-0.1,0.2-0.5,0.7-3.2,1.2c-0.4,0.1-0.5,0.6-0.7,1.1c0,0.2-0.1,0.4-0.2,0.6c0,0.1,0,0.1-0.1,0.1l0,0
		c-0.1,0-0.3,0-0.5-0.1c-0.4-0.1-0.9-0.2-1.5-0.2c-0.4,0-0.8,0-1.2,0.1c-0.8,0.1-1.4,0.6-2.2,1.1c-1,0.7-1.9,1.3-3.4,1.3
		c-0.1,0-0.1,0-0.2,0l0,0l0,0h-0.1c-1.4,0-2.5-0.7-3.4-1.3c-0.7-0.5-1.3-1-2.2-1.1c-0.4-0.1-0.8-0.1-1.2-0.1c-0.7,0-1.2,0.1-1.5,0.2
		c-0.2,0-0.4,0.1-0.5,0.1s-0.1,0-0.1-0.1c-0.1-0.2-0.1-0.4-0.2-0.6c-0.1-0.6-0.2-1.1-0.7-1.1c-2.7-0.4-3.1-1-3.2-1.2c0,0,0,0,0-0.1
		c3.9-0.7,5.8-4.6,5.9-4.9c0.3-0.6,0.3-1.1,0.1-1.4c-0.3-0.8-1.2-1.1-1.8-1.2c-0.1,0-0.3-0.1-0.4-0.1c-0.8-0.3-1.1-0.7-1.1-0.9
		s0.4-0.5,0.8-0.5c0.1,0,0.1,0,0.2,0c0.6,0.3,1.1,0.4,1.5,0.4c0.7,0,1-0.3,1.1-0.4l0.1-0.1v-0.1c0-0.3,0-0.6-0.1-0.9
		c-0.1-1.8-0.3-4,0.3-5.3c1.6-3.7,5.2-4,6.2-4C-1282.3,1378.5-1281.8,1378.5-1281.8,1378.5L-1281.8,1378.5 M-1281.8,1377.9
		L-1281.8,1377.9L-1281.8,1377.9c-0.2,0-0.5,0-0.6,0c-0.6,0-1.8,0.1-3.2,0.7c-0.8,0.3-1.4,0.8-2,1.3c-0.7,0.7-1.2,1.4-1.6,2.4
		c-0.6,1.3-0.5,3.7-0.4,5.6l0,0c0,0.2,0,0.4,0,0.6c-0.1,0-0.2,0.1-0.5,0.1c-0.4,0-0.8-0.1-1.2-0.3c-0.1-0.1-0.3-0.1-0.5-0.1
		c-0.3,0-0.6,0.1-0.9,0.2c-0.3,0.2-0.5,0.5-0.6,0.8c0,0.2,0,0.6,0.4,1c0.2,0.2,0.6,0.4,1.1,0.6c0.1,0,0.3,0.1,0.4,0.1
		c0.5,0.2,1.2,0.4,1.4,0.9c0.1,0.2,0.1,0.6-0.1,1l0,0c0,0.1-0.5,1.1-1.3,2.1c-0.5,0.6-1.1,1.1-1.6,1.4c-0.8,0.5-1.5,0.8-2.3,0.9
		c-0.3,0.1-0.6,0.4-0.6,0.7c0,0.1,0,0.2,0.1,0.3l0,0c0.1,0.3,0.5,0.6,1,0.8c0.6,0.3,1.5,0.5,2.7,0.7c0.1,0.1,0.1,0.4,0.2,0.6
		c0,0.2,0.1,0.4,0.2,0.7s0.3,0.6,0.8,0.6c0.2,0,0.4,0,0.7-0.1c0.4-0.1,0.9-0.2,1.4-0.2c0.3,0,0.7,0,1.1,0.1c0.7,0.1,1.2,0.5,1.9,1
		c1,0.7,2.1,1.4,3.7,1.4h0.1c0.1,0,0.1,0,0.2,0c1.7,0,2.8-0.8,3.7-1.4l0,0c0.7-0.5,1.2-0.9,1.9-1c0.4-0.1,0.7-0.1,1.1-0.1
		c0.6,0,1.1,0.1,1.4,0.2c0.3,0.1,0.5,0.1,0.7,0.1l0,0l0,0c0.4,0,0.6-0.2,0.7-0.5c0.1-0.2,0.1-0.4,0.2-0.7c0-0.2,0.1-0.5,0.2-0.6
		c1.2-0.2,2.1-0.4,2.7-0.7c0.5-0.2,0.8-0.5,1-0.8c0-0.1,0.1-0.2,0.1-0.3c0-0.3-0.2-0.6-0.6-0.7c-3.7-0.6-5.3-4.3-5.4-4.5l0,0
		c-0.2-0.4-0.2-0.7-0.1-1c0.2-0.5,1-0.7,1.4-0.9c0.2,0,0.3-0.1,0.4-0.1c0.5-0.2,0.9-0.4,1.1-0.7c0.3-0.3,0.3-0.6,0.3-0.8
		c0-0.5-0.4-0.9-0.9-1.1c-0.2-0.1-0.4-0.1-0.6-0.1c-0.1,0-0.4,0-0.6,0.1c-0.4,0.2-0.8,0.3-1.2,0.3c-0.2,0-0.3,0-0.4-0.1
		c0-0.2,0-0.4,0-0.6v-0.1c0.1-1.8,0.3-4.1-0.4-5.6c-0.4-1-1-1.7-1.6-2.4c-0.6-0.6-1.2-1-2-1.3
		C-1280,1377.9-1281.1,1377.9-1281.8,1377.9"/>
</g>
</svg>
